<svg width="2418" height="482" viewBox="0 0 2418 482" fill="none" xmlns="http://www.w3.org/2000/svg">
<path d="M449.236 481C526.43 479.427 588.5 416.288 588.5 338.667C588.5 300.917 573.514 264.714 546.838 238.022L309.974 1V148.325C309.974 172.964 319.755 196.594 337.167 214.017L392.654 269.541L392.805 269.688L485.842 362.788C488.864 365.811 488.864 370.713 485.842 373.736C482.822 376.76 477.922 376.76 474.902 373.736L442.832 341.645H146.168L114.099 373.736C111.077 376.76 106.178 376.76 103.157 373.736C100.136 370.713 100.136 365.811 103.157 362.788L196.195 269.688L196.346 269.541L251.833 214.017C269.245 196.594 279.026 172.964 279.026 148.325V1L42.161 238.022C15.4858 264.714 0.5 300.917 0.5 338.667C0.5 416.288 62.5702 479.427 139.764 481H449.236Z" fill="#FF0A0A"/>
<path d="M807.193 224.586V436.5H734.049V70.7773H805.143L805.484 161.354H790.787C802.18 128.541 818.473 104.16 839.664 88.209C860.855 72.2585 886.376 64.2832 916.227 64.2832C941.292 64.2832 963.622 69.752 983.219 80.6895C1003.04 91.3991 1018.54 107.35 1029.7 128.541C1041.1 149.732 1046.79 176.165 1046.79 207.838V436.5H973.99V216.725C973.99 188.014 967.04 166.253 953.141 151.441C939.241 136.402 919.645 128.883 894.352 128.883C877.945 128.883 863.134 132.301 849.918 139.137C836.702 145.973 826.22 156.454 818.473 170.582C810.953 184.71 807.193 202.711 807.193 224.586ZM1247.13 444.703C1211.12 444.703 1180.02 436.614 1153.82 420.436C1127.84 404.257 1107.9 381.926 1094 353.443C1080.1 324.732 1073.15 291.806 1073.15 254.664C1073.15 217.522 1080.33 184.596 1094.69 155.885C1109.04 126.946 1128.98 104.273 1154.5 87.8672C1180.02 71.4609 1209.42 63.2578 1242.68 63.2578C1267.52 63.2578 1290.19 67.5872 1310.7 76.2461C1331.44 84.9049 1349.32 97.5514 1364.36 114.186C1379.4 130.592 1391.02 150.53 1399.23 174C1407.66 197.242 1411.87 223.447 1411.87 252.613V274.146H1107.67V219.117H1373.93L1341.12 236.207C1341.12 213.421 1337.13 193.71 1329.16 177.076C1321.41 160.214 1310.25 147.226 1295.66 138.111C1281.08 128.769 1263.65 124.098 1243.37 124.098C1223.32 124.098 1205.88 128.769 1191.07 138.111C1176.49 147.226 1165.1 160.1 1156.89 176.734C1148.92 193.141 1144.93 212.281 1144.93 234.156V266.969C1144.93 290.439 1149.03 310.947 1157.23 328.492C1165.44 346.038 1177.17 359.71 1192.44 369.508C1207.93 379.078 1226.51 383.863 1248.15 383.863C1263.65 383.863 1277.32 381.585 1289.17 377.027C1301.02 372.242 1310.93 365.634 1318.9 357.203C1327.11 348.544 1333.03 338.518 1336.68 327.125L1406.4 330.885C1401.62 353.215 1391.82 372.926 1377.01 390.016C1362.2 407.105 1343.63 420.549 1321.3 430.348C1299.19 439.918 1274.47 444.703 1247.13 444.703ZM1385.6 436.5L1534.96 225.611L1534.28 273.463L1393.8 70.7773H1476.51L1519.92 136.402C1529.95 151.897 1539.4 167.164 1548.29 182.203C1557.41 197.014 1566.52 211.826 1575.63 226.637H1544.87C1554.22 211.826 1563.33 197.014 1572.22 182.203C1581.1 167.164 1590.67 151.897 1600.93 136.402L1645.02 70.7773H1726.37L1584.52 273.805L1584.86 226.295L1732.52 436.5H1649.8L1599.22 361.646C1589.19 346.38 1579.74 331.568 1570.85 317.213C1562.19 302.857 1553.3 288.502 1544.19 274.146H1574.27C1565.15 288.502 1556.15 302.857 1547.27 317.213C1538.61 331.568 1529.26 346.38 1519.24 361.646L1467.97 436.5H1385.6ZM1874.75 442.994C1849.91 442.994 1827.58 437.639 1807.76 426.93C1788.16 416.22 1772.66 400.156 1761.27 378.736C1749.88 357.317 1744.18 330.999 1744.18 299.781V70.7773H1817.33V290.553C1817.33 319.264 1824.28 341.139 1838.18 356.178C1852.3 370.989 1871.79 378.395 1896.62 378.395C1913.03 378.395 1927.84 374.977 1941.06 368.141C1954.27 361.305 1964.75 350.823 1972.5 336.695C1980.25 322.568 1984.12 304.566 1984.12 282.691V70.7773H2056.93V436.5H1985.83V345.924H2000.53C1988.91 378.736 1972.5 403.118 1951.31 419.068C1930.12 435.019 1904.6 442.994 1874.75 442.994ZM2235.38 444.703C2207.81 444.703 2182.98 440.374 2160.87 431.715C2139 423.056 2121.22 410.182 2107.55 393.092C2094.11 376.002 2086.13 354.811 2083.63 329.518L2155.06 326.441C2157.8 346.038 2165.89 360.963 2179.33 371.217C2192.77 381.471 2211.12 386.598 2234.36 386.598C2257.6 386.598 2275.94 381.926 2289.39 372.584C2302.83 363.014 2309.55 351.051 2309.55 336.695C2309.55 324.391 2304.88 314.479 2295.54 306.959C2286.43 299.439 2273.67 293.857 2257.26 290.211L2196.42 276.881C2162.24 269.133 2136.38 256.601 2118.83 239.283C2101.29 221.965 2092.51 199.863 2092.51 172.975C2092.51 151.327 2098.32 132.301 2109.95 115.895C2121.79 99.4883 2138.31 86.7279 2159.51 77.6133C2180.7 68.2708 2205.19 63.5996 2232.99 63.5996C2260.11 63.5996 2284.03 68.2708 2304.77 77.6133C2325.51 86.7279 2341.91 99.7161 2353.99 116.578C2366.29 133.44 2373.36 153.492 2375.18 176.734L2306.48 179.811C2305.34 163.176 2298.39 149.277 2285.63 138.111C2272.87 126.946 2255.66 121.363 2234.02 121.363C2213.28 121.363 2196.65 126.148 2184.12 135.719C2171.58 145.061 2165.32 156.796 2165.32 170.924C2165.32 183.229 2169.99 193.255 2179.33 201.002C2188.67 208.521 2201.89 214.218 2218.98 218.092L2280.5 231.764C2315.82 239.511 2341.8 251.588 2358.43 267.994C2375.07 284.4 2383.38 305.82 2383.38 332.252C2383.38 355.266 2377 375.204 2364.24 392.066C2351.71 408.928 2334.28 421.917 2311.95 431.031C2289.62 440.146 2264.1 444.703 2235.38 444.703Z" fill="#FF0000"/>
</svg>
